<svg height="434.649" viewBox="0 0 415.698 325.986" width="554.264" xmlns="http://www.w3.org/2000/svg" xmlns:xlink="http://www.w3.org/1999/xlink"><defs><style>*{stroke-linecap:butt;stroke-linejoin:round}</style></defs><g id="figure_1"><path d="M0 325.986h415.698V0H0z" fill="none" id="patch_1"/><g id="axes_1"><path d="M51.378 288.43h357.12V22.318H51.378z" fill="none" id="patch_2"/><g id="matplotlib.axis_1"><g id="xtick_1"><path clip-path="url(#pdd7331fbe0)" d="M109.09 288.43V22.318" fill="none" stroke="#b0b0b0" stroke-linecap="square" stroke-width=".8" id="line2d_1"/><g id="line2d_2"><defs><path d="M0 0v3.5" id="m25fe43b8d3" stroke="#000" stroke-width=".8"/></defs><use x="109.091" xlink:href="#m25fe43b8d3" y="288.43" stroke="#000" stroke-width=".8"/></g><g id="text_1"><defs><path d="M12.406 8.297h16.11v55.625l-17.532-3.516v8.985l17.438 3.515h9.86V8.296H54.39V0H12.406z" id="DejaVuSans-49"/><path d="M31.781 66.406q-7.61 0-11.453-7.5Q16.5 51.422 16.5 36.375q0-14.984 3.828-22.484 3.844-7.5 11.453-7.5 7.672 0 11.5 7.5 3.844 7.5 3.844 22.484 0 15.047-3.844 22.531-3.828 7.5-11.5 7.5zm0 7.813q12.266 0 18.735-9.703 6.468-9.688 6.468-28.141 0-18.406-6.468-28.11-6.47-9.687-18.735-9.687-12.25 0-18.718 9.688-6.47 9.703-6.47 28.109 0 18.453 6.47 28.14Q19.53 74.22 31.78 74.22z" id="DejaVuSans-48"/></defs><g transform="matrix(.1 0 0 -.1 100.29 303.029)"><use transform="translate(0 .684)" xlink:href="#DejaVuSans-49"/><use transform="translate(63.623 .684)" xlink:href="#DejaVuSans-48"/><use transform="matrix(.7 0 0 .7 128.203 38.966)" xlink:href="#DejaVuSans-49"/></g></g></g><g id="xtick_2"><path clip-path="url(#pdd7331fbe0)" d="M192.05 288.43V22.318" fill="none" stroke="#b0b0b0" stroke-linecap="square" stroke-width=".8" id="line2d_3"/><use x="192.051" xlink:href="#m25fe43b8d3" y="288.43" stroke="#000" stroke-width=".8" id="line2d_4"/><g id="text_2"><defs><path d="M40.578 39.313Q47.656 37.797 51.625 33q3.984-4.781 3.984-11.813 0-10.78-7.422-16.703-7.421-5.906-21.093-5.906-4.578 0-9.438.906-4.86.907-10.031 2.72v9.515q4.094-2.39 8.969-3.61 4.89-1.218 10.218-1.218 9.266 0 14.125 3.656 4.86 3.656 4.86 10.64 0 6.454-4.516 10.079-4.515 3.64-12.562 3.64h-8.5v8.11h8.89q7.266 0 11.125 2.906 3.86 2.906 3.86 8.375 0 5.61-3.985 8.61-3.968 3.015-11.39 3.015-4.063 0-8.703-.89-4.641-.876-10.203-2.72v8.782q5.624 1.562 10.53 2.344 4.907.78 9.25.78 11.235 0 17.766-5.109 6.547-5.093 6.547-13.78 0-6.063-3.468-10.235-3.47-4.172-9.86-5.782z" id="DejaVuSans-51"/></defs><g transform="matrix(.1 0 0 -.1 183.25 303.029)"><use transform="translate(0 .766)" xlink:href="#DejaVuSans-49"/><use transform="translate(63.623 .766)" xlink:href="#DejaVuSans-48"/><use transform="matrix(.7 0 0 .7 128.203 39.047)" xlink:href="#DejaVuSans-51"/></g></g></g><g id="xtick_3"><path clip-path="url(#pdd7331fbe0)" d="M275.01 288.43V22.318" fill="none" stroke="#b0b0b0" stroke-linecap="square" stroke-width=".8" id="line2d_5"/><use x="275.011" xlink:href="#m25fe43b8d3" y="288.43" stroke="#000" stroke-width=".8" id="line2d_6"/><g id="text_3"><defs><path d="M10.797 72.906h38.719v-8.312H19.828v-17.86q2.14.735 4.281 1.094 2.157.36 4.313.36 12.203 0 19.328-6.688 7.14-6.688 7.14-18.11 0-11.765-7.328-18.296-7.328-6.516-20.656-6.516-4.593 0-9.36.781-4.75.782-9.827 2.344v9.922q4.39-2.39 9.078-3.563 4.687-1.171 9.906-1.171 8.453 0 13.375 4.437 4.938 4.438 4.938 12.063 0 7.609-4.938 12.047-4.922 4.453-13.375 4.453-3.953 0-7.89-.875-3.922-.875-8.016-2.735z" id="DejaVuSans-53"/></defs><g transform="matrix(.1 0 0 -.1 266.21 303.029)"><use transform="translate(0 .684)" xlink:href="#DejaVuSans-49"/><use transform="translate(63.623 .684)" xlink:href="#DejaVuSans-48"/><use transform="matrix(.7 0 0 .7 128.203 38.966)" xlink:href="#DejaVuSans-53"/></g></g></g><g id="xtick_4"><path clip-path="url(#pdd7331fbe0)" d="M357.97 288.43V22.318" fill="none" stroke="#b0b0b0" stroke-linecap="square" stroke-width=".8" id="line2d_7"/><use x="357.971" xlink:href="#m25fe43b8d3" y="288.43" stroke="#000" stroke-width=".8" id="line2d_8"/><g id="text_4"><defs><path d="M8.203 72.906h46.875v-4.203L28.61 0H18.312L43.22 64.594H8.203z" id="DejaVuSans-55"/></defs><g transform="matrix(.1 0 0 -.1 349.17 303.029)"><use transform="translate(0 .684)" xlink:href="#DejaVuSans-49"/><use transform="translate(63.623 .684)" xlink:href="#DejaVuSans-48"/><use transform="matrix(.7 0 0 .7 128.203 38.966)" xlink:href="#DejaVuSans-55"/></g></g></g><g id="text_5"><defs><path d="M54.89 33.016V0h-8.984v32.719q0 7.765-3.031 11.61-3.031 3.858-9.078 3.858-7.281 0-11.484-4.64-4.204-4.625-4.204-12.64V0H9.08v54.688h9.03v-8.5q3.235 4.937 7.594 7.374Q30.078 56 35.797 56q9.422 0 14.25-5.828 4.844-5.828 4.844-17.156z" id="DejaVuSans-110"/></defs><use xlink:href="#DejaVuSans-110" transform="matrix(.1 0 0 -.1 226.77 316.707)"/></g></g><g id="matplotlib.axis_2"><g id="ytick_1"><path clip-path="url(#pdd7331fbe0)" d="M51.378 259.721h357.12" fill="none" stroke="#b0b0b0" stroke-linecap="square" stroke-width=".8" id="line2d_9"/><g id="line2d_10"><defs><path d="M0 0h-3.5" id="m10a395be46" stroke="#000" stroke-width=".8"/></defs><use x="51.378" xlink:href="#m10a395be46" y="259.721" stroke="#000" stroke-width=".8"/></g><g id="text_6"><defs><path d="M10.594 35.5h62.593v-8.297H10.594z" id="DejaVuSans-8722"/></defs><g transform="matrix(.1 0 0 -.1 20.878 263.52)"><use transform="translate(0 .684)" xlink:href="#DejaVuSans-49"/><use transform="translate(63.623 .684)" xlink:href="#DejaVuSans-48"/><use transform="matrix(.7 0 0 .7 128.203 38.966)" xlink:href="#DejaVuSans-8722"/><use transform="matrix(.7 0 0 .7 186.855 38.966)" xlink:href="#DejaVuSans-55"/></g></g></g><g id="ytick_2"><path clip-path="url(#pdd7331fbe0)" d="M51.378 229.671h357.12" fill="none" stroke="#b0b0b0" stroke-linecap="square" stroke-width=".8" id="line2d_11"/><use x="51.378" xlink:href="#m10a395be46" y="229.671" stroke="#000" stroke-width=".8" id="line2d_12"/><g id="text_7"><defs><path d="M33.016 40.375q-6.641 0-10.532-4.547-3.875-4.531-3.875-12.437 0-7.86 3.875-12.438 3.891-4.562 10.532-4.562 6.64 0 10.515 4.562 3.875 4.578 3.875 12.438 0 7.906-3.875 12.437-3.875 4.547-10.515 4.547zm19.578 30.922v-8.984q-3.719 1.75-7.5 2.671-3.782.938-7.5.938-9.766 0-14.922-6.594-5.14-6.594-5.875-19.922 2.875 4.25 7.219 6.516 4.359 2.266 9.578 2.266 10.984 0 17.36-6.672 6.374-6.657 6.374-18.125 0-11.235-6.64-18.032-6.641-6.78-17.672-6.78-12.657 0-19.344 9.687-6.688 9.703-6.688 28.109 0 17.281 8.204 27.563 8.203 10.28 22.015 10.28 3.719 0 7.5-.734t7.89-2.187z" id="DejaVuSans-54"/></defs><g transform="matrix(.1 0 0 -.1 20.878 233.47)"><use transform="translate(0 .766)" xlink:href="#DejaVuSans-49"/><use transform="translate(63.623 .766)" xlink:href="#DejaVuSans-48"/><use transform="matrix(.7 0 0 .7 128.203 39.047)" xlink:href="#DejaVuSans-8722"/><use transform="matrix(.7 0 0 .7 186.855 39.047)" xlink:href="#DejaVuSans-54"/></g></g></g><g id="ytick_3"><path clip-path="url(#pdd7331fbe0)" d="M51.378 199.621h357.12" fill="none" stroke="#b0b0b0" stroke-linecap="square" stroke-width=".8" id="line2d_13"/><use x="51.378" xlink:href="#m10a395be46" y="199.621" stroke="#000" stroke-width=".8" id="line2d_14"/><g transform="matrix(.1 0 0 -.1 20.878 203.42)" id="text_8"><use transform="translate(0 .684)" xlink:href="#DejaVuSans-49"/><use transform="translate(63.623 .684)" xlink:href="#DejaVuSans-48"/><use transform="matrix(.7 0 0 .7 128.203 38.966)" xlink:href="#DejaVuSans-8722"/><use transform="matrix(.7 0 0 .7 186.855 38.966)" xlink:href="#DejaVuSans-53"/></g></g><g id="ytick_4"><path clip-path="url(#pdd7331fbe0)" d="M51.378 169.572h357.12" fill="none" stroke="#b0b0b0" stroke-linecap="square" stroke-width=".8" id="line2d_15"/><use x="51.378" xlink:href="#m10a395be46" y="169.572" stroke="#000" stroke-width=".8" id="line2d_16"/><g id="text_9"><defs><path d="M37.797 64.313L12.89 25.39h24.906zm-2.594 8.593H47.61V25.391h10.407v-8.203H47.609V0h-9.812v17.188H4.89v9.515z" id="DejaVuSans-52"/></defs><g transform="matrix(.1 0 0 -.1 20.878 173.37)"><use transform="translate(0 .684)" xlink:href="#DejaVuSans-49"/><use transform="translate(63.623 .684)" xlink:href="#DejaVuSans-48"/><use transform="matrix(.7 0 0 .7 128.203 38.966)" xlink:href="#DejaVuSans-8722"/><use transform="matrix(.7 0 0 .7 186.855 38.966)" xlink:href="#DejaVuSans-52"/></g></g></g><g id="ytick_5"><path clip-path="url(#pdd7331fbe0)" d="M51.378 139.522h357.12" fill="none" stroke="#b0b0b0" stroke-linecap="square" stroke-width=".8" id="line2d_17"/><use x="51.378" xlink:href="#m10a395be46" y="139.522" stroke="#000" stroke-width=".8" id="line2d_18"/><g transform="matrix(.1 0 0 -.1 20.878 143.32)" id="text_10"><use transform="translate(0 .766)" xlink:href="#DejaVuSans-49"/><use transform="translate(63.623 .766)" xlink:href="#DejaVuSans-48"/><use transform="matrix(.7 0 0 .7 128.203 39.047)" xlink:href="#DejaVuSans-8722"/><use transform="matrix(.7 0 0 .7 186.855 39.047)" xlink:href="#DejaVuSans-51"/></g></g><g id="ytick_6"><path clip-path="url(#pdd7331fbe0)" d="M51.378 109.472h357.12" fill="none" stroke="#b0b0b0" stroke-linecap="square" stroke-width=".8" id="line2d_19"/><use x="51.378" xlink:href="#m10a395be46" y="109.472" stroke="#000" stroke-width=".8" id="line2d_20"/><g id="text_11"><defs><path d="M19.188 8.297h34.421V0H7.33v8.297q5.609 5.812 15.296 15.594 9.703 9.797 12.188 12.64 4.734 5.313 6.609 9 1.89 3.688 1.89 7.25 0 5.813-4.078 9.469-4.078 3.672-10.625 3.672-4.64 0-9.797-1.61-5.14-1.609-11-4.89v9.969Q13.767 71.78 18.938 73q5.188 1.219 9.485 1.219 11.328 0 18.062-5.672 6.735-5.656 6.735-15.125 0-4.5-1.688-8.531-1.672-4.016-6.125-9.485-1.218-1.422-7.765-8.187-6.532-6.766-18.453-18.922z" id="DejaVuSans-50"/></defs><g transform="matrix(.1 0 0 -.1 20.878 113.271)"><use transform="translate(0 .766)" xlink:href="#DejaVuSans-49"/><use transform="translate(63.623 .766)" xlink:href="#DejaVuSans-48"/><use transform="matrix(.7 0 0 .7 128.203 39.047)" xlink:href="#DejaVuSans-8722"/><use transform="matrix(.7 0 0 .7 186.855 39.047)" xlink:href="#DejaVuSans-50"/></g></g></g><g id="ytick_7"><path clip-path="url(#pdd7331fbe0)" d="M51.378 79.422h357.12" fill="none" stroke="#b0b0b0" stroke-linecap="square" stroke-width=".8" id="line2d_21"/><use x="51.378" xlink:href="#m10a395be46" y="79.422" stroke="#000" stroke-width=".8" id="line2d_22"/><g transform="matrix(.1 0 0 -.1 20.878 83.221)" id="text_12"><use transform="translate(0 .684)" xlink:href="#DejaVuSans-49"/><use transform="translate(63.623 .684)" xlink:href="#DejaVuSans-48"/><use transform="matrix(.7 0 0 .7 128.203 38.966)" xlink:href="#DejaVuSans-8722"/><use transform="matrix(.7 0 0 .7 186.855 38.966)" xlink:href="#DejaVuSans-49"/></g></g><g id="ytick_8"><path clip-path="url(#pdd7331fbe0)" d="M51.378 49.372h357.12" fill="none" stroke="#b0b0b0" stroke-linecap="square" stroke-width=".8" id="line2d_23"/><use x="51.378" xlink:href="#m10a395be46" y="49.372" stroke="#000" stroke-width=".8" id="line2d_24"/><g transform="matrix(.1 0 0 -.1 26.778 53.171)" id="text_13"><use transform="translate(0 .766)" xlink:href="#DejaVuSans-49"/><use transform="translate(63.623 .766)" xlink:href="#DejaVuSans-48"/><use transform="matrix(.7 0 0 .7 128.203 39.047)" xlink:href="#DejaVuSans-48"/></g></g><g id="ytick_9"><g id="line2d_25"><defs><path d="M0 0h-2" id="m64e279dc74" stroke="#000" stroke-width=".6"/></defs><use x="51.378" xlink:href="#m64e279dc74" y="280.725" stroke="#000" stroke-width=".6"/></g></g><g id="ytick_10"><use x="51.378" xlink:href="#m64e279dc74" y="275.434" stroke="#000" stroke-width=".6" id="line2d_26"/></g><g id="ytick_11"><use x="51.378" xlink:href="#m64e279dc74" y="271.679" stroke="#000" stroke-width=".6" id="line2d_27"/></g><g id="ytick_12"><use x="51.378" xlink:href="#m64e279dc74" y="268.767" stroke="#000" stroke-width=".6" id="line2d_28"/></g><g id="ytick_13"><use x="51.378" xlink:href="#m64e279dc74" y="266.388" stroke="#000" stroke-width=".6" id="line2d_29"/></g><g id="ytick_14"><use x="51.378" xlink:href="#m64e279dc74" y="264.376" stroke="#000" stroke-width=".6" id="line2d_30"/></g><g id="ytick_15"><use x="51.378" xlink:href="#m64e279dc74" y="262.633" stroke="#000" stroke-width=".6" id="line2d_31"/></g><g id="ytick_16"><use x="51.378" xlink:href="#m64e279dc74" y="261.096" stroke="#000" stroke-width=".6" id="line2d_32"/></g><g id="ytick_17"><use x="51.378" xlink:href="#m64e279dc74" y="250.675" stroke="#000" stroke-width=".6" id="line2d_33"/></g><g id="ytick_18"><use x="51.378" xlink:href="#m64e279dc74" y="245.384" stroke="#000" stroke-width=".6" id="line2d_34"/></g><g id="ytick_19"><use x="51.378" xlink:href="#m64e279dc74" y="241.629" stroke="#000" stroke-width=".6" id="line2d_35"/></g><g id="ytick_20"><use x="51.378" xlink:href="#m64e279dc74" y="238.717" stroke="#000" stroke-width=".6" id="line2d_36"/></g><g id="ytick_21"><use x="51.378" xlink:href="#m64e279dc74" y="236.338" stroke="#000" stroke-width=".6" id="line2d_37"/></g><g id="ytick_22"><use x="51.378" xlink:href="#m64e279dc74" y="234.326" stroke="#000" stroke-width=".6" id="line2d_38"/></g><g id="ytick_23"><use x="51.378" xlink:href="#m64e279dc74" y="232.584" stroke="#000" stroke-width=".6" id="line2d_39"/></g><g id="ytick_24"><use x="51.378" xlink:href="#m64e279dc74" y="231.046" stroke="#000" stroke-width=".6" id="line2d_40"/></g><g id="ytick_25"><use x="51.378" xlink:href="#m64e279dc74" y="220.625" stroke="#000" stroke-width=".6" id="line2d_41"/></g><g id="ytick_26"><use x="51.378" xlink:href="#m64e279dc74" y="215.334" stroke="#000" stroke-width=".6" id="line2d_42"/></g><g id="ytick_27"><use x="51.378" xlink:href="#m64e279dc74" y="211.58" stroke="#000" stroke-width=".6" id="line2d_43"/></g><g id="ytick_28"><use x="51.378" xlink:href="#m64e279dc74" y="208.667" stroke="#000" stroke-width=".6" id="line2d_44"/></g><g id="ytick_29"><use x="51.378" xlink:href="#m64e279dc74" y="206.288" stroke="#000" stroke-width=".6" id="line2d_45"/></g><g id="ytick_30"><use x="51.378" xlink:href="#m64e279dc74" y="204.276" stroke="#000" stroke-width=".6" id="line2d_46"/></g><g id="ytick_31"><use x="51.378" xlink:href="#m64e279dc74" y="202.534" stroke="#000" stroke-width=".6" id="line2d_47"/></g><g id="ytick_32"><use x="51.378" xlink:href="#m64e279dc74" y="200.996" stroke="#000" stroke-width=".6" id="line2d_48"/></g><g id="ytick_33"><use x="51.378" xlink:href="#m64e279dc74" y="190.576" stroke="#000" stroke-width=".6" id="line2d_49"/></g><g id="ytick_34"><use x="51.378" xlink:href="#m64e279dc74" y="185.284" stroke="#000" stroke-width=".6" id="line2d_50"/></g><g id="ytick_35"><use x="51.378" xlink:href="#m64e279dc74" y="181.53" stroke="#000" stroke-width=".6" id="line2d_51"/></g><g id="ytick_36"><use x="51.378" xlink:href="#m64e279dc74" y="178.617" stroke="#000" stroke-width=".6" id="line2d_52"/></g><g id="ytick_37"><use x="51.378" xlink:href="#m64e279dc74" y="176.238" stroke="#000" stroke-width=".6" id="line2d_53"/></g><g id="ytick_38"><use x="51.378" xlink:href="#m64e279dc74" y="174.226" stroke="#000" stroke-width=".6" id="line2d_54"/></g><g id="ytick_39"><use x="51.378" xlink:href="#m64e279dc74" y="172.484" stroke="#000" stroke-width=".6" id="line2d_55"/></g><g id="ytick_40"><use x="51.378" xlink:href="#m64e279dc74" y="170.947" stroke="#000" stroke-width=".6" id="line2d_56"/></g><g id="ytick_41"><use x="51.378" xlink:href="#m64e279dc74" y="160.526" stroke="#000" stroke-width=".6" id="line2d_57"/></g><g id="ytick_42"><use x="51.378" xlink:href="#m64e279dc74" y="155.234" stroke="#000" stroke-width=".6" id="line2d_58"/></g><g id="ytick_43"><use x="51.378" xlink:href="#m64e279dc74" y="151.48" stroke="#000" stroke-width=".6" id="line2d_59"/></g><g id="ytick_44"><use x="51.378" xlink:href="#m64e279dc74" y="148.568" stroke="#000" stroke-width=".6" id="line2d_60"/></g><g id="ytick_45"><use x="51.378" xlink:href="#m64e279dc74" y="146.188" stroke="#000" stroke-width=".6" id="line2d_61"/></g><g id="ytick_46"><use x="51.378" xlink:href="#m64e279dc74" y="144.176" stroke="#000" stroke-width=".6" id="line2d_62"/></g><g id="ytick_47"><use x="51.378" xlink:href="#m64e279dc74" y="142.434" stroke="#000" stroke-width=".6" id="line2d_63"/></g><g id="ytick_48"><use x="51.378" xlink:href="#m64e279dc74" y="140.897" stroke="#000" stroke-width=".6" id="line2d_64"/></g><g id="ytick_49"><use x="51.378" xlink:href="#m64e279dc74" y="130.476" stroke="#000" stroke-width=".6" id="line2d_65"/></g><g id="ytick_50"><use x="51.378" xlink:href="#m64e279dc74" y="125.184" stroke="#000" stroke-width=".6" id="line2d_66"/></g><g id="ytick_51"><use x="51.378" xlink:href="#m64e279dc74" y="121.43" stroke="#000" stroke-width=".6" id="line2d_67"/></g><g id="ytick_52"><use x="51.378" xlink:href="#m64e279dc74" y="118.518" stroke="#000" stroke-width=".6" id="line2d_68"/></g><g id="ytick_53"><use x="51.378" xlink:href="#m64e279dc74" y="116.138" stroke="#000" stroke-width=".6" id="line2d_69"/></g><g id="ytick_54"><use x="51.378" xlink:href="#m64e279dc74" y="114.127" stroke="#000" stroke-width=".6" id="line2d_70"/></g><g id="ytick_55"><use x="51.378" xlink:href="#m64e279dc74" y="112.384" stroke="#000" stroke-width=".6" id="line2d_71"/></g><g id="ytick_56"><use x="51.378" xlink:href="#m64e279dc74" y="110.847" stroke="#000" stroke-width=".6" id="line2d_72"/></g><g id="ytick_57"><use x="51.378" xlink:href="#m64e279dc74" y="100.426" stroke="#000" stroke-width=".6" id="line2d_73"/></g><g id="ytick_58"><use x="51.378" xlink:href="#m64e279dc74" y="95.134" stroke="#000" stroke-width=".6" id="line2d_74"/></g><g id="ytick_59"><use x="51.378" xlink:href="#m64e279dc74" y="91.38" stroke="#000" stroke-width=".6" id="line2d_75"/></g><g id="ytick_60"><use x="51.378" xlink:href="#m64e279dc74" y="88.468" stroke="#000" stroke-width=".6" id="line2d_76"/></g><g id="ytick_61"><use x="51.378" xlink:href="#m64e279dc74" y="86.088" stroke="#000" stroke-width=".6" id="line2d_77"/></g><g id="ytick_62"><use x="51.378" xlink:href="#m64e279dc74" y="84.077" stroke="#000" stroke-width=".6" id="line2d_78"/></g><g id="ytick_63"><use x="51.378" xlink:href="#m64e279dc74" y="82.334" stroke="#000" stroke-width=".6" id="line2d_79"/></g><g id="ytick_64"><use x="51.378" xlink:href="#m64e279dc74" y="80.797" stroke="#000" stroke-width=".6" id="line2d_80"/></g><g id="ytick_65"><use x="51.378" xlink:href="#m64e279dc74" y="70.376" stroke="#000" stroke-width=".6" id="line2d_81"/></g><g id="ytick_66"><use x="51.378" xlink:href="#m64e279dc74" y="65.084" stroke="#000" stroke-width=".6" id="line2d_82"/></g><g id="ytick_67"><use x="51.378" xlink:href="#m64e279dc74" y="61.33" stroke="#000" stroke-width=".6" id="line2d_83"/></g><g id="ytick_68"><use x="51.378" xlink:href="#m64e279dc74" y="58.418" stroke="#000" stroke-width=".6" id="line2d_84"/></g><g id="ytick_69"><use x="51.378" xlink:href="#m64e279dc74" y="56.038" stroke="#000" stroke-width=".6" id="line2d_85"/></g><g id="ytick_70"><use x="51.378" xlink:href="#m64e279dc74" y="54.027" stroke="#000" stroke-width=".6" id="line2d_86"/></g><g id="ytick_71"><use x="51.378" xlink:href="#m64e279dc74" y="52.284" stroke="#000" stroke-width=".6" id="line2d_87"/></g><g id="ytick_72"><use x="51.378" xlink:href="#m64e279dc74" y="50.747" stroke="#000" stroke-width=".6" id="line2d_88"/></g><g id="ytick_73"><use x="51.378" xlink:href="#m64e279dc74" y="40.326" stroke="#000" stroke-width=".6" id="line2d_89"/></g><g id="ytick_74"><use x="51.378" xlink:href="#m64e279dc74" y="35.035" stroke="#000" stroke-width=".6" id="line2d_90"/></g><g id="ytick_75"><use x="51.378" xlink:href="#m64e279dc74" y="31.28" stroke="#000" stroke-width=".6" id="line2d_91"/></g><g id="ytick_76"><use x="51.378" xlink:href="#m64e279dc74" y="28.368" stroke="#000" stroke-width=".6" id="line2d_92"/></g><g id="ytick_77"><use x="51.378" xlink:href="#m64e279dc74" y="25.989" stroke="#000" stroke-width=".6" id="line2d_93"/></g><g id="ytick_78"><use x="51.378" xlink:href="#m64e279dc74" y="23.977" stroke="#000" stroke-width=".6" id="line2d_94"/></g><g id="text_14"><defs><path d="M41.11 46.297q-1.516.875-3.297 1.281Q36.03 48 33.89 48q-7.625 0-11.703-4.953-4.079-4.953-4.079-14.234V0H9.08v54.688h9.03v-8.5q2.844 4.984 7.375 7.39Q30.031 56 36.531 56q.922 0 2.047-.125 1.125-.11 2.484-.36z" id="DejaVuSans-114"/><path d="M8.5 21.578v33.11h8.984V21.922q0-7.766 3.016-11.656 3.031-3.875 9.094-3.875 7.265 0 11.484 4.64 4.234 4.64 4.234 12.656v31h8.985V0h-8.984v8.406Q42.047 3.422 37.718 1q-4.313-2.422-10.032-2.422-9.421 0-14.312 5.86Q8.5 10.296 8.5 21.578zM31.11 56z" id="DejaVuSans-117"/><path d="M18.313 70.219V54.688h18.5v-6.985h-18.5V18.016q0-6.688 1.828-8.594 1.828-1.906 7.453-1.906h9.218V0h-9.218q-10.407 0-14.36 3.875-3.953 3.89-3.953 14.14v29.688H2.687v6.984h6.594V70.22z" id="DejaVuSans-116"/><path d="M9.422 54.688h8.984V0H9.422zm0 21.296h8.984v-11.39H9.422z" id="DejaVuSans-105"/><path d="M52 44.188q3.375 6.062 8.063 8.937Q64.75 56 71.093 56q8.548 0 13.188-5.984 4.64-5.97 4.64-17V0h-9.03v32.719q0 7.86-2.797 11.656-2.781 3.813-8.485 3.813-6.984 0-11.046-4.641-4.047-4.625-4.047-12.64V0h-9.032v32.719q0 7.906-2.78 11.687-2.782 3.782-8.595 3.782-6.89 0-10.953-4.657-4.047-4.656-4.047-12.625V0H9.08v54.688h9.03v-8.5q3.078 5.03 7.375 7.421Q29.781 56 35.687 56q5.97 0 10.141-3.031Q50 49.953 52 44.187z" id="DejaVuSans-109"/><path d="M56.203 29.594v-4.39H14.891q.593-9.282 5.593-14.142 5-4.859 13.938-4.859 5.172 0 10.031 1.266 4.86 1.265 9.656 3.812v-8.5Q49.266.734 44.187-.344 39.11-1.422 33.892-1.422q-13.094 0-20.735 7.61-7.64 7.625-7.64 20.625 0 13.421 7.25 21.296Q20.016 56 32.328 56q11.031 0 17.453-7.11 6.422-7.093 6.422-19.296zm-8.984 2.64q-.094 7.36-4.125 11.75-4.032 4.407-10.672 4.407-7.516 0-12.031-4.25-4.516-4.25-5.203-11.97z" id="DejaVuSans-101"/><path d="M8.594 75.984h20.703V69H17.578V-6.203h11.719v-6.984H8.594z" id="DejaVuSans-91"/><path d="M44.281 53.078v-8.5q-3.797 1.953-7.906 2.922-4.094.984-8.5.984-6.688 0-10.031-2.047-3.344-2.046-3.344-6.156 0-3.125 2.39-4.906 2.391-1.781 9.626-3.39l3.078-.688q9.562-2.047 13.593-5.781 4.032-3.735 4.032-10.422 0-7.625-6.032-12.078-6.03-4.438-16.578-4.438-4.39 0-9.156.86Q10.688.296 5.422 2v9.281q4.984-2.594 9.812-3.89 4.829-1.282 9.579-1.282 6.343 0 9.75 2.172 3.421 2.172 3.421 6.125 0 3.656-2.468 5.61-2.453 1.953-10.813 3.765l-3.125.735q-8.344 1.75-12.062 5.39-3.704 3.64-3.704 9.985 0 7.718 5.47 11.906Q16.75 56 26.811 56q4.97 0 9.36-.734 4.406-.72 8.11-2.188z" id="DejaVuSans-115"/><path d="M30.422 75.984v-89.171H9.719v6.984H21.39V69H9.719v6.984z" id="DejaVuSans-93"/></defs><g transform="matrix(0 -.1 -.1 0 14.798 183.159)"><use xlink:href="#DejaVuSans-114"/><use x="41.113" xlink:href="#DejaVuSans-117"/><use x="104.492" xlink:href="#DejaVuSans-110"/><use x="167.871" xlink:href="#DejaVuSans-116"/><use x="207.08" xlink:href="#DejaVuSans-105"/><use x="234.863" xlink:href="#DejaVuSans-109"/><use x="332.275" xlink:href="#DejaVuSans-101"/><use x="393.799" xlink:href="#DejaVuSans-32"/><use x="425.586" xlink:href="#DejaVuSans-91"/><use x="464.6" xlink:href="#DejaVuSans-115"/><use x="516.699" xlink:href="#DejaVuSans-93"/></g></g></g><path clip-path="url(#pdd7331fbe0)" d="M67.61 209.492l12.488 8.014 12.486.899 12.487-.613 12.487-6.973 12.486-6.049 12.487-8.026 12.487-8.768 12.487-9.319 12.486-8.296 12.487-8.986 12.487-9.007 12.486-9.909 12.487-8.3 12.487-9.25 12.487-9.634 12.486-9.51 12.487-7.94 12.487-8.77 12.486-8.493 12.487-9.755 12.487-7.914 12.487-8.738 12.486-9.96 12.487-9.78" fill="none" stroke="#1f77b4" stroke-linecap="square" stroke-width="1.5" id="line2d_95"/><path clip-path="url(#pdd7331fbe0)" d="M67.61 235.293l12.488.284 12.486-.562 12.487.48 12.487.041 12.486-.501 12.487-.02 12.487-.67 12.487-1.481 12.486-2.413 12.487-2.817 12.487-5.684 12.486-5.669 12.487-7.546 12.487-9.167 12.487-7.846 12.486-8.18 12.487-9.186 12.487-14.206 12.486-13.467 12.487-10.921 12.487-10.68 12.487-12.453 12.486-8.498 12.487-9.278 12.487-8.42 12.486-9.367" fill="none" stroke="#ff7f0e" stroke-linecap="square" stroke-width="1.5" id="line2d_96"/><path clip-path="url(#pdd7331fbe0)" d="M67.61 276.334l12.488-.9 12.486-.428 12.487-.816 12.487-2.51 12.486-3.171 12.487-5.545 12.487-7.727 12.487-7.578 12.486-8.382 12.487-8.574 12.487-10.577 12.486-9.89 12.487-8.832 12.487-7.224 12.487-10.058 12.486-8.563 12.487-6.85 12.487-9.998 12.486-12.717 12.487-10.98 12.487-9.493 12.487-9.332 12.486-9.287 12.487-9.246 12.487-9.065 12.486-9.194" fill="none" stroke="#2ca02c" stroke-linecap="square" stroke-width="1.5" id="line2d_97"/><path d="M51.378 288.43V22.318" fill="none" stroke="#000" stroke-linecap="square" stroke-width=".8" id="patch_3"/><path d="M408.498 288.43V22.318" fill="none" stroke="#000" stroke-linecap="square" stroke-width=".8" id="patch_4"/><path d="M51.378 288.43h357.12" fill="none" stroke="#000" stroke-linecap="square" stroke-width=".8" id="patch_5"/><path d="M51.378 22.318h357.12" fill="none" stroke="#000" stroke-linecap="square" stroke-width=".8" id="patch_6"/><g id="text_15"><defs><path d="M2.984 54.688H12.5L29.594 8.797l17.093 45.89h9.516L35.687 0H23.485z" id="DejaVuSans-118"/><path d="M48.781 52.594v-8.407q-3.812 2.11-7.64 3.157-3.828 1.047-7.735 1.047-8.75 0-13.593-5.547-4.829-5.532-4.829-15.547 0-10.016 4.829-15.563 4.843-5.53 13.593-5.53 3.907 0 7.735 1.046 3.828 1.047 7.64 3.156V2.094Q45.016.344 40.984-.531q-4.015-.89-8.562-.89-12.36 0-19.64 7.765-7.266 7.765-7.266 20.953 0 13.375 7.343 21.031Q20.22 56 33.016 56q4.14 0 8.093-.86 3.953-.843 7.672-2.546z" id="DejaVuSans-99"/><path d="M30.61 48.39q-7.22 0-11.422-5.64-4.204-5.64-4.204-15.453 0-9.813 4.172-15.453 4.188-5.64 11.453-5.64 7.188 0 11.375 5.655 4.203 5.672 4.203 15.438 0 9.719-4.203 15.406-4.187 5.688-11.375 5.688zm0 7.61q11.718 0 18.406-7.625 6.703-7.61 6.703-21.078 0-13.422-6.703-21.078-6.688-7.64-18.407-7.64-11.765 0-18.437 7.64-6.656 7.656-6.656 21.078 0 13.469 6.656 21.078Q18.844 56 30.609 56z" id="DejaVuSans-111"/></defs><g transform="matrix(.12 0 0 -.12 193.1 16.318)"><use xlink:href="#DejaVuSans-115"/><use x="52.1" xlink:href="#DejaVuSans-117"/><use x="115.479" xlink:href="#DejaVuSans-109"/><use x="212.891" xlink:href="#DejaVuSans-32"/><use x="244.678" xlink:href="#DejaVuSans-118"/><use x="303.857" xlink:href="#DejaVuSans-101"/><use x="365.381" xlink:href="#DejaVuSans-99"/><use x="420.361" xlink:href="#DejaVuSans-116"/><use x="459.57" xlink:href="#DejaVuSans-111"/><use x="520.752" xlink:href="#DejaVuSans-114"/><use x="561.865" xlink:href="#DejaVuSans-115"/></g></g><g id="legend_1"><path d="M58.378 74.353H171.53q2 0 2-2V29.318q0-2-2-2H58.378q-2 0-2 2v43.035q0 2 2 2z" fill="#fff" opacity=".8" stroke="#ccc" id="patch_7"/><path d="M60.378 35.417h20" fill="none" stroke="#1f77b4" stroke-linecap="square" stroke-width="1.5" id="line2d_98"/><g id="text_16"><defs><path d="M19.672 64.797v-27.39h12.406q6.89 0 10.64 3.562 3.766 3.562 3.766 10.156 0 6.547-3.765 10.11-3.75 3.562-10.64 3.562zm-9.86 8.11h22.266q12.266 0 18.531-5.548 6.282-5.546 6.282-16.234 0-10.797-6.282-16.313-6.265-5.515-18.53-5.515H19.671V0h-9.86z" id="DejaVuSans-80"/><path d="M32.172-5.078q-3.797-9.766-7.422-12.735-3.61-2.984-9.656-2.984H7.906v7.516h5.282q3.703 0 5.75 1.765Q21-9.766 23.483-3.219l1.61 4.094-22.11 53.813H12.5l17.094-42.766 17.093 42.766h9.516z" id="DejaVuSans-121"/><path d="M54.89 33.016V0h-8.984v32.719q0 7.765-3.031 11.61-3.031 3.858-9.078 3.858-7.281 0-11.484-4.64-4.204-4.625-4.204-12.64V0H9.08v75.984h9.03V46.188q3.235 4.937 7.594 7.374Q30.078 56 35.797 56q9.422 0 14.25-5.828 4.844-5.828 4.844-17.156z" id="DejaVuSans-104"/></defs><g transform="matrix(.1 0 0 -.1 88.378 38.917)"><use xlink:href="#DejaVuSans-80"/><use x="60.303" xlink:href="#DejaVuSans-121"/><use x="119.482" xlink:href="#DejaVuSans-116"/><use x="158.691" xlink:href="#DejaVuSans-104"/><use x="222.07" xlink:href="#DejaVuSans-111"/><use x="283.252" xlink:href="#DejaVuSans-110"/></g></g><path d="M60.378 50.095h20" fill="none" stroke="#ff7f0e" stroke-linecap="square" stroke-width="1.5" id="line2d_100"/><g id="text_17"><defs><path d="M31 75.875q-6.531-11.219-9.719-22.219-3.172-10.984-3.172-22.265 0-11.266 3.203-22.328Q24.517-2 31-13.188h-7.813Q15.875-1.704 12.235 9.375q-3.64 11.078-3.64 22.016 0 10.89 3.61 21.922 3.624 11.046 10.983 22.562z" id="DejaVuSans-40"/><path d="M9.813 72.906h13.28l32.329-60.984v60.984h9.562V0h-13.28L19.39 60.984V0H9.813z" id="DejaVuSans-78"/><path d="M8.016 75.875h7.812q7.313-11.516 10.953-22.563 3.64-11.03 3.64-21.921 0-10.938-3.64-22.016-3.64-11.078-10.953-22.563H8.016Q14.5-2 17.703 9.063q3.203 11.063 3.203 22.329 0 11.28-3.203 22.265-3.203 11-9.687 22.219z" id="DejaVuSans-41"/></defs><g transform="matrix(.1 0 0 -.1 88.378 53.595)"><use xlink:href="#DejaVuSans-80"/><use x="60.303" xlink:href="#DejaVuSans-121"/><use x="119.482" xlink:href="#DejaVuSans-116"/><use x="158.691" xlink:href="#DejaVuSans-104"/><use x="222.07" xlink:href="#DejaVuSans-111"/><use x="283.252" xlink:href="#DejaVuSans-110"/><use x="346.631" xlink:href="#DejaVuSans-32"/><use x="378.418" xlink:href="#DejaVuSans-40"/><use x="417.432" xlink:href="#DejaVuSans-78"/><use x="492.236" xlink:href="#DejaVuSans-117"/><use x="555.615" xlink:href="#DejaVuSans-109"/><use x="653.027" xlink:href="#DejaVuSans-80"/><use x="713.33" xlink:href="#DejaVuSans-121"/><use x="772.51" xlink:href="#DejaVuSans-41"/></g></g><path d="M60.378 64.773h20" fill="none" stroke="#2ca02c" stroke-linecap="square" stroke-width="1.5" id="line2d_102"/><g id="text_18"><defs><path d="M64.406 67.281v-10.39q-4.984 4.64-10.625 6.922-5.64 2.296-11.984 2.296-12.5 0-19.14-7.64-6.641-7.64-6.641-22.094 0-14.406 6.64-22.047 6.64-7.64 19.14-7.64 6.345 0 11.985 2.296 5.64 2.297 10.625 6.938V5.609Q59.234 2.094 53.437.33q-5.78-1.75-12.218-1.75-16.563 0-26.094 10.124-9.516 10.14-9.516 27.672 0 17.578 9.516 27.703 9.531 10.14 26.094 10.14 6.531 0 12.312-1.734 5.797-1.734 10.875-5.203z" id="DejaVuSans-67"/><path d="M46 62.703V35.5h27.188v-8.297H46V0h-8.203v27.203H10.594V35.5h27.203v27.203z" id="DejaVuSans-43"/></defs><g transform="matrix(.1 0 0 -.1 88.378 68.273)"><use xlink:href="#DejaVuSans-67"/><use x="69.824" xlink:href="#DejaVuSans-43"/><use x="153.613" xlink:href="#DejaVuSans-43"/></g></g></g></g></g><defs><clipPath id="pdd7331fbe0"><path d="M51.378 22.318h357.12V288.43H51.378z"/></clipPath></defs></svg>